<svg
    viewBox="0 0 73 40"
    fill="none"
    xmlns="http://www.w3.org/2000/svg"
  >
    <path
      fill-rule="evenodd"
      clip-rule="evenodd"
      d="M37.6294 0V0.00947581C57.1738 0.22598 72.8975 9.09428 72.8975 20.0026C72.8975 25.8884 68.3197 31.1802 61.034 34.8396C61.0668 34.8618 61.0996 34.8841 61.1322 34.9065H60.9C54.5306 38.0738 46.1189 39.9997 36.8975 39.9997C27.676 39.9997 19.2643 38.0738 12.8949 34.9065H12.6627C12.6954 34.8841 12.7281 34.8618 12.7609 34.8396C5.47523 31.1802 0.897461 25.8884 0.897461 20.0026C0.897461 9.09404 16.6219 0.225584 36.1669 0.00946133V0H37.6294ZM16.0302 34.739C18.7697 35.8681 21.8313 36.7839 25.1314 37.4351C22.9641 36.4172 21.0057 35.1268 19.323 33.6198C19.1211 33.6761 18.9228 33.7334 18.7282 33.7917L18.7171 33.795L18.717 33.795C17.8038 34.0607 16.9068 34.3759 16.0302 34.739ZM18.1255 32.4619C17.093 32.77 16.0804 33.138 15.0931 33.564C14.8098 33.6862 14.5308 33.8173 14.2567 33.9572C13.53 33.6148 12.8299 33.2566 12.1586 32.8837C6.17312 29.5589 2.72002 25.2337 2.3866 20.7234L12.913 20.6947C13.0944 25.1374 15.0151 29.2125 18.1255 32.4619ZM21.0437 33.1812C23.9315 35.5445 27.6029 37.2777 31.7503 38.0722C30.0092 36.6926 28.4991 34.6347 27.3428 32.1036C27.1745 32.1234 27.007 32.1437 26.8406 32.1644C25.301 32.3556 23.8367 32.5847 22.4909 32.8632C21.9942 32.966 21.5115 33.0718 21.0437 33.1812ZM26.7636 30.7182C26.7284 30.7226 26.6932 30.7269 26.6581 30.7313C25.0908 30.9259 23.5856 31.1608 22.1909 31.4495C21.3359 31.6264 20.5147 31.8135 19.7335 32.0137C16.538 28.912 14.569 24.9537 14.3769 20.6907L24.9035 20.6619C24.9753 24.3546 25.6478 27.7942 26.7636 30.7182ZM28.8775 31.9377C29.1269 32.452 29.3915 32.9422 29.6699 33.4062C31.5137 36.4787 33.8234 38.2103 36.1669 38.5087V31.5613C34.6184 31.5748 33.1415 31.6308 31.6817 31.7166C30.7284 31.7727 29.7915 31.848 28.8775 31.9377ZM36.1669 30.1168C34.586 30.1304 33.08 30.1874 31.5948 30.2748C30.457 30.3417 29.3435 30.4353 28.2646 30.5477C27.139 27.7331 26.4405 24.3443 26.3662 20.6579L36.1669 20.6311V30.1168ZM37.6294 31.561V38.5085C39.9721 38.2093 42.281 36.4778 44.1242 33.4062C44.4027 32.9421 44.6675 32.4517 44.9169 31.9372C44.0045 31.8494 43.0673 31.7765 42.1074 31.7163C40.6544 31.6252 39.1797 31.5733 37.6294 31.561ZM45.5301 30.5465C44.4503 30.4355 43.3389 30.3462 42.2001 30.2748C40.7153 30.1816 39.2097 30.1289 37.6294 30.1165V20.6271L47.4291 20.6002C47.361 24.3085 46.6613 27.7175 45.5301 30.5465ZM46.4519 32.1023C45.2954 34.6346 43.7846 36.6932 42.0427 38.0731C46.1935 37.2788 49.8676 35.5443 52.757 33.1788C52.2899 33.0694 51.8082 32.9646 51.3121 32.8649C49.9527 32.5914 48.4971 32.3618 46.949 32.1637C46.7842 32.1427 46.6185 32.1222 46.4519 32.1023ZM54.0656 32.0125C53.2852 31.8107 52.4641 31.6225 51.604 31.4495C50.2024 31.1675 48.711 30.9326 47.1368 30.7313C47.1015 30.7267 47.0661 30.7222 47.0307 30.7178C48.153 27.7766 48.8269 24.3136 48.8919 20.5962L59.426 20.5674C59.2667 24.8768 57.2912 28.8811 54.0656 32.0125ZM54.4746 33.6199C52.7926 35.1264 50.8349 36.4164 48.6685 37.4341C51.9667 36.7829 55.0266 35.8675 57.7647 34.739C56.8881 34.3759 55.9911 34.0607 55.0779 33.795L55.0667 33.7917L55.0667 33.7917C54.8727 33.7335 54.6753 33.6763 54.4746 33.6199ZM59.5382 33.9572C59.2641 33.8173 58.9851 33.6862 58.7018 33.564C57.7153 33.1383 56.7034 32.7705 55.6716 32.4626C58.8131 29.1811 60.7411 25.0575 60.8897 20.5634L71.4204 20.5346C71.1707 25.1129 67.7053 29.5126 61.6364 32.8837C60.965 33.2566 60.265 33.6148 59.5382 33.9572ZM12.1586 7.12142C12.7467 6.7947 13.3569 6.47929 13.9878 6.17595C14.348 6.36979 14.7168 6.54882 15.0931 6.7125C16.0152 7.11259 16.9596 7.46194 17.9219 7.75896C14.9452 10.9574 13.1074 14.9286 12.9156 19.2502L2.38679 19.279C2.72137 14.7697 6.17429 10.4455 12.1586 7.12142ZM18.7195 6.48896C17.6926 6.1882 16.6863 5.82485 15.7068 5.40108C18.528 4.20987 21.7008 3.24698 25.1314 2.57006C22.8637 3.63508 20.8247 4.99843 19.091 6.59619C18.9663 6.56087 18.843 6.52525 18.7208 6.48936L18.7195 6.48896ZM14.3801 19.2462C14.5851 15.1084 16.464 11.2607 19.5124 8.20936C20.3572 8.43067 21.2508 8.63791 22.1909 8.82702C23.5925 9.10895 25.0839 9.35729 26.6581 9.55196L26.6639 9.55268C25.6202 12.3849 24.988 15.6835 24.9062 19.2174L14.3801 19.2462ZM26.8398 8.11872C26.9675 8.13451 27.0957 8.15008 27.2243 8.1654C28.395 5.51331 29.9491 3.36019 31.7503 1.93294C27.4785 2.75127 23.7116 4.56549 20.7859 7.03838C21.3317 7.16913 21.8975 7.29392 22.4828 7.41164C23.8502 7.68669 25.3047 7.92889 26.8398 8.11872ZM26.3692 19.2134C26.4547 15.6943 27.109 12.4506 28.1598 9.72424C29.2725 9.84166 30.419 9.93928 31.5948 10.0084C33.08 10.0958 34.586 10.1478 36.1669 10.16V19.1866L26.3692 19.2134ZM31.6817 8.56654C33.1385 8.65221 34.6157 8.70332 36.1669 8.71554V1.49637C33.8234 1.79483 31.5137 3.52644 29.6699 6.5989C29.344 7.14203 29.037 7.72111 28.7512 8.33276C29.7058 8.42811 30.6836 8.50785 31.6817 8.56654ZM37.6294 19.1826V10.1603C39.2097 10.1493 40.7153 10.1016 42.2001 10.0084C43.3748 9.93474 44.5235 9.8421 45.6351 9.72617C46.6797 12.4372 47.3324 15.6597 47.4236 19.1558L37.6294 19.1826ZM42.1074 8.56689C43.111 8.50394 44.0919 8.42717 45.0436 8.33399C44.7576 7.72189 44.4504 7.14239 44.1242 6.5989C42.281 3.52734 39.9721 1.79584 37.6294 1.49663V8.71585C39.1826 8.70484 40.6571 8.65786 42.1074 8.56689ZM48.8864 19.1518C48.7983 15.6428 48.1675 12.3674 47.1303 9.5528L47.1368 9.55196C48.7041 9.35058 50.2093 9.10895 51.604 8.82702C52.5408 8.63765 53.4371 8.43009 54.2846 8.20844C57.3032 11.2297 59.1753 15.0316 59.4111 19.123L48.8864 19.1518ZM51.3108 7.41192C51.8954 7.29374 52.4628 7.16848 53.0107 7.0373C50.084 4.56402 46.3159 2.74978 42.0427 1.93201C43.8448 3.35952 45.3995 5.51352 46.5705 8.16685C46.697 8.15144 46.8229 8.13569 46.9482 8.1196C48.4869 7.92189 49.9565 7.68567 51.3108 7.41192ZM60.8759 19.119C60.653 14.8479 58.8222 10.9244 55.8753 7.75825C56.8368 7.46139 57.7804 7.11227 58.7018 6.7125C59.0781 6.54882 59.4469 6.36979 59.8072 6.17595C60.438 6.47929 61.0482 6.7947 61.6364 7.12142C67.5371 10.3991 70.9767 14.6492 71.3923 19.0903L60.8759 19.119ZM55.0754 6.48896C56.1023 6.1882 57.1086 5.82485 58.0882 5.40108C55.2683 4.21045 52.0972 3.24793 48.6685 2.57105C50.9351 3.63578 52.9731 4.99854 54.7061 6.59551C54.8301 6.56041 54.9528 6.52502 55.0741 6.48936L55.0754 6.48896Z"
      fill="currentColor" />
  </svg>